<?xml version="1.0" standalone="no"?>
<!DOCTYPE svg PUBLIC "-//W3C//DTD SVG 20010904//EN"
 "http://www.w3.org/TR/2001/REC-SVG-20010904/DTD/svg10.dtd">
<svg version="1.0" xmlns="http://www.w3.org/2000/svg"
 width="1477.000000pt" height="1477.000000pt" viewBox="0 0 1477.000000 1477.000000"
 preserveAspectRatio="xMidYMid meet">
<metadata>
Created by potrace 1.14, written by Peter Selinger 2001-2017
</metadata>
<g transform="translate(0.000000,1477.000000) scale(0.100000,-0.100000)"
fill="#000000" stroke="none">
<path d="M4687 9674 c-1 -1 -49 -4 -107 -8 -539 -32 -818 -233 -910 -654 -10
-48 -22 -127 -26 -177 -9 -114 -9 -2314 0 -2415 11 -122 12 -131 36 -225 58
-233 186 -398 382 -494 86 -42 224 -86 306 -97 26 -3 68 -10 95 -14 94 -14
560 -20 609 -7 15 4 33 17 39 29 14 26 19 611 6 678 -11 52 -24 57 -171 64
-191 9 -229 36 -244 178 -4 40 -7 550 -6 1133 1 1110 1 1119 43 1169 35 41 92
56 239 62 105 4 129 13 139 52 9 38 10 612 0 662 -6 31 -15 43 -35 51 -20 8
-386 20 -395 13z"/>
<path d="M5413 9670 c-92 -9 -88 7 -89 -373 -1 -183 2 -342 7 -354 13 -34 41
-43 155 -48 173 -8 220 -29 248 -111 14 -41 16 -173 15 -1158 0 -1048 -1
-1114 -18 -1164 -29 -83 -66 -100 -243 -108 -62 -3 -120 -10 -130 -15 -32 -17
-37 -70 -35 -396 2 -357 0 -347 68 -362 40 -8 409 -7 524 3 68 5 174 20 210
30 6 1 26 6 45 10 367 82 576 325 627 731 10 78 10 2452 0 2530 -30 241 -109
422 -233 537 -66 61 -92 80 -164 117 -191 97 -389 132 -770 135 -91 0 -189 -1
-217 -4z"/>
<path d="M7210 9642 c-83 -9 -86 -17 -34 -117 79 -154 210 -406 264 -510 31
-60 94 -182 140 -270 46 -88 108 -207 138 -265 30 -58 91 -175 135 -260 43
-85 101 -195 127 -245 26 -49 85 -162 130 -250 46 -88 109 -209 140 -270 76
-145 169 -324 270 -520 93 -181 185 -358 270 -520 61 -116 143 -275 280 -540
103 -200 136 -252 163 -262 22 -7 989 -12 1039 -5 60 9 71 -17 -252 597 -26
50 -82 158 -125 240 -43 83 -85 164 -95 180 -10 17 -59 111 -110 210 -51 99
-109 212 -130 250 -20 39 -69 131 -107 205 -106 202 -179 344 -238 455 -86
164 -168 322 -240 460 -37 72 -84 162 -105 200 -21 39 -70 133 -110 210 -40
77 -96 185 -125 240 -29 55 -83 159 -120 230 -38 72 -88 168 -113 215 -24 47
-49 91 -55 99 -7 8 -11 16 -9 18 7 8 -74 147 -107 184 l-36 41 -480 1 c-264 1
-491 1 -505 -1z"/>
<path d="M9255 9638 c-33 -5 -55 -14 -68 -30 -17 -21 -58 -103 -238 -473 -76
-159 -79 -185 -26 -295 29 -61 141 -277 207 -400 7 -14 17 -33 22 -43 5 -9 30
-59 57 -110 27 -50 69 -130 93 -177 60 -115 77 -140 97 -140 30 1 48 25 116
155 37 72 91 175 120 230 29 55 88 168 131 250 43 83 102 195 130 250 29 55
74 141 99 190 26 50 75 144 110 210 148 282 175 338 175 356 0 12 -9 21 -25
25 -36 9 -940 11 -1000 2z"/>
<path d="M10660 9639 c-108 -12 -161 -58 -239 -209 -29 -58 -77 -150 -106
-205 -29 -55 -80 -153 -114 -217 -33 -65 -89 -171 -123 -235 -145 -275 -200
-381 -229 -438 -17 -33 -52 -100 -78 -150 -253 -482 -235 -444 -235 -520 l0
-70 123 -240 c68 -132 162 -314 209 -405 46 -91 117 -228 157 -305 40 -77 117
-228 172 -335 56 -107 133 -258 173 -335 40 -77 85 -165 101 -195 36 -73 78
-116 136 -142 43 -19 70 -22 238 -24 185 -2 727 -9 1600 -19 237 -3 592 -7
790 -10 198 -2 432 -5 520 -6 95 -1 177 3 202 10 60 16 122 68 152 126 l26 50
0 1835 0 1835 -22 40 c-28 52 -78 100 -128 121 -47 21 -45 21 -1120 29 -1348
10 -2100 16 -2125 19 -14 1 -50 -1 -80 -5z"/>
<path d="M29 9621 l-24 -19 -2 -1966 c-2 -1483 0 -1971 9 -1991 6 -14 23 -29
37 -32 34 -9 918 -9 953 0 17 4 30 17 36 36 7 20 10 671 9 1991 l-2 1962 -24
19 c-22 18 -45 19 -496 19 -451 0 -474 -1 -496 -19z"/>
<path d="M1273 9630 c-32 -13 -35 -53 -31 -407 3 -281 5 -314 20 -330 15 -15
41 -18 175 -19 329 -5 371 -24 391 -170 9 -68 8 -440 -2 -497 -7 -44 -28 -88
-50 -107 -31 -25 -127 -38 -285 -39 -188 -2 -211 -5 -233 -32 -16 -19 -18 -49
-18 -308 0 -312 3 -329 55 -343 16 -4 136 -8 266 -8 356 -2 334 31 334 -485 0
-350 -1 -372 -20 -409 -23 -45 -56 -72 -100 -82 -16 -3 -118 -8 -225 -10 -241
-4 -276 -8 -292 -37 -9 -16 -12 -115 -12 -358 -1 -367 -1 -361 58 -377 35 -9
699 -8 761 1 22 3 65 9 95 12 195 21 421 115 535 222 126 117 203 291 241 543
10 62 12 758 3 795 -4 17 -10 46 -12 65 -16 126 -119 314 -246 447 l-49 52 25
28 c78 88 163 247 195 363 22 80 23 102 23 395 0 171 -3 326 -7 345 -4 19 -10
53 -14 75 -9 60 -53 193 -82 250 -123 244 -322 364 -697 420 -104 15 -766 20
-802 5z"/>
<path d="M7978 7433 c-8 -10 -52 -90 -98 -178 -148 -287 -212 -408 -270 -520
-146 -280 -271 -521 -413 -795 -166 -322 -167 -324 -124 -332 12 -2 250 -4
528 -3 471 0 507 1 533 18 25 17 67 95 158 296 11 25 37 82 58 126 172 362
180 382 180 429 0 31 -87 214 -202 426 -19 36 -64 119 -98 185 -196 375 -190
365 -220 365 -9 0 -24 -8 -32 -17z"/>
</g>
</svg>
